<?xml version="1.0" encoding="utf-8"?>
<!-- Uploaded to: SVG Repo, www.svgrepo.com, Generator: SVG Repo Mixer Tools -->
<svg width="3rem" height="4rem" viewBox="0 -15.1 393.308 393.308" xmlns="http://www.w3.org/2000/svg"><defs><style>.a{fill:#ffffff;}.b{fill:#957f6e;}.c{fill:#211715;}.d{fill:#f4b3b3;}.e{fill:#d9d9d9;}</style></defs><path class="a" d="M177.878,136.929a46.972,46.972,0,0,1-3.089-8.205,7.817,7.817,0,0,0-2.42-2.895c-1.634-1.161-4.014-1.834-3.435-4.562a4.755,4.755,0,0,1,1.684-2.579c4.073-3.438,2.819-10.44,1.926-15.486a41.537,41.537,0,0,1-.851-4.164,40.842,40.842,0,0,1,.031-11.258l.27.223a86.663,86.663,0,0,0,16.679,10.529c3.151,1.406,13.434,5.868,18.734,6.287l1.585.126a6.976,6.976,0,0,1,2.11-2.3,4.544,4.544,0,0,1,4-.586c1.982.74,2.958,2.993,3.264,5.086a15.2,15.2,0,0,1-5.254,13.594c2.161,3.789,4.438,7.637,5.292,11.856a13.921,13.921,0,0,1-1.2,9.435c-.924,1.67,4.93,2.533,7.616,2.6,3.183.02,6.754-.4,8.9-2.532l4.4,6.5-25.778,12.889-7.011-11.6s-1.718-2.865-2.593-4.3c-.834-1.365-1.607-2.333-1.779-2.588a1.7,1.7,0,0,0-2.173-.575c-3.176,1.609-8.476,2.189-12.563,1.59a9.789,9.789,0,0,1-6.283-3.769A17.961,17.961,0,0,1,177.878,136.929Z"/><path class="b" d="M186.348,65a30.186,30.186,0,0,0-13.755,18.391,36.837,36.837,0,0,0-.869,4.388l.27.222a86.663,86.663,0,0,0,16.679,10.529c3.151,1.406,13.434,5.868,18.734,6.287l1.587.126a6.949,6.949,0,0,1,2.108-2.3,4.544,4.544,0,0,1,4-.586c1.982.74,2.958,2.993,3.264,5.086a15.2,15.2,0,0,1-5.254,13.594c2.162,3.789,4.438,7.637,5.292,11.856a13.921,13.921,0,0,1-1.2,9.435c-.924,1.67,4.93,2.533,7.616,2.6a19.014,19.014,0,0,0,5.635-.674c14.221,5.542,21.479-2.219,21.158-7.932a25.436,25.436,0,0,0-2.015-8.623c-1.547-3.878-4.608-11.886-5.337-26.582-.419-3.844-.739-7.551-.924-10.224,0,0-.049-.709-.1-1.583a32.086,32.086,0,0,0-8.092-17.059,38.2,38.2,0,0,0-35.462-11.738c-1.941.431-3.961.992-5.843,1.613a43.366,43.366,0,0,0-6.554,2.657Q186.813,64.734,186.348,65Z"/><path class="c" d="M210.583,107.088a5.827,5.827,0,0,1,1.73-2.374,3.491,3.491,0,0,1,1.034-.475c.032-.005.644-.018.547-.03.1.012.745.273.475.135a2.823,2.823,0,0,1,1.192,1.478,7.918,7.918,0,0,1,.547,2.885,12.856,12.856,0,0,1-5.06,10.615,2.469,2.469,0,0,0-.861,3.283,2.419,2.419,0,0,0,3.284.861,17.674,17.674,0,0,0,7.233-16.82c-.451-3.1-2.262-6.331-5.534-7.066-3.808-.855-7.179,1.8-8.732,5.085a2.468,2.468,0,0,0,.861,3.284,2.421,2.421,0,0,0,3.284-.861Z"/><path class="c" d="M168.918,94.982a77.539,77.539,0,0,0,1.534,10.13,26.665,26.665,0,0,1,.517,7.64,7.408,7.408,0,0,1-.987,3.049c-.745,1.178-1.99,1.92-2.7,3.165-1.735,3.029-.552,6.1,2.213,7.894a8.855,8.855,0,0,1,2.578,1.977,9.559,9.559,0,0,1,1.1,2.825,40.508,40.508,0,0,0,3.454,7.974,14.1,14.1,0,0,0,6.765,6.084,19.611,19.611,0,0,0,9.073.772,24.968,24.968,0,0,0,5.112-1,16.318,16.318,0,0,0,2.154-.87c.043.118-.778-.185-.654-.172q-.212-.283,0,0l.289.392c1.444,1.987,2.65,4.152,3.912,6.257,1.587,2.646,5.739.235,4.144-2.423-1.085-1.809-2.124-3.665-3.312-5.409a9.487,9.487,0,0,0-2.355-2.78c-1.491-.958-2.959-.6-4.476.029a20.673,20.673,0,0,1-8.387,1.323c-2.79-.076-5.044-.764-6.929-2.928a21.856,21.856,0,0,1-3.494-6.64c-.94-2.512-1.387-5.056-3.24-7.111a13.593,13.593,0,0,0-3.065-2.292,6.378,6.378,0,0,1-.7-.461c.231.19-.29-.34-.084-.064-.208-.28-.134-.264-.117-.064a1.517,1.517,0,0,1,.134-.818,4.421,4.421,0,0,1,1.171-1.287,10.117,10.117,0,0,0,1.4-1.684,10.769,10.769,0,0,0,1.529-3.8c1.356-6.669-1.513-13.1-1.768-19.709-.119-3.079-4.919-3.094-4.8,0Z"/><path class="c" d="M233.513,147.459c5.745,1.4,12.217,1.114,16.787-3.057a11.664,11.664,0,0,0,3.388-5.486c.731-2.736.188-5.812-.526-8.493-.566-2.124-1.466-4.13-2.211-6.193q-1.017-2.82-1.763-5.728a78.358,78.358,0,0,1-1.64-8.231c-.532-3.615-.657-7.257-1.033-10.886-.336-3.249-.625-6.5-.836-9.763a29.734,29.734,0,0,0-2.94-10.562,37.67,37.67,0,0,0-13.548-15.33,41.469,41.469,0,0,0-18.57-6.453c-7.184-.717-14.324.842-20.974,3.523a31.977,31.977,0,0,0-15.626,13.156,37.958,37.958,0,0,0-5.1,19.826,42.837,42.837,0,0,0,.468,5.943,2.416,2.416,0,0,0,2.953,1.676,2.463,2.463,0,0,0,1.676-2.952c-1.711-12.026,2.821-25.368,13.8-31.52a43.156,43.156,0,0,1,9.793-3.727,34.943,34.943,0,0,1,9.231-1.311A36.136,36.136,0,0,1,223.5,65.96a33.925,33.925,0,0,1,13.1,11.864,29.548,29.548,0,0,1,3.715,8.56,53.612,53.612,0,0,1,.971,8.451c.939,10.7,1.557,21.465,5.39,31.612a36.882,36.882,0,0,1,2.369,7.644,15.362,15.362,0,0,1,.191,2.316c0,.2-.013.389-.027.584-.025.372.109-.291-.069.351a11.585,11.585,0,0,1-.37,1.193c.2-.492-.086.161-.115.214-.144.261-.284.521-.445.772a8.2,8.2,0,0,1-4.388,3.268,16.168,16.168,0,0,1-9.027.041c-3-.729-4.281,3.9-1.276,4.629Z"/><path class="c" d="M211.4,122.577c1.894,3.316,3.842,6.673,4.647,10.448a12.439,12.439,0,0,1,.131,4.725,10.639,10.639,0,0,1-.659,2.3,5.66,5.66,0,0,0-.8,2.277c.019,2.877,3.352,3.783,5.637,4.2a26.046,26.046,0,0,0,8.714.192c4.238-.651,7.58-3.1,8.861-7.283.907-2.96-3.725-4.226-4.629-1.276-1.1,3.576-4.852,4.068-8.119,4.068a20.032,20.032,0,0,1-3.551-.329,16.642,16.642,0,0,1-1.818-.424c-.1-.031-.956-.385-.485-.15-.115-.054-.227-.114-.337-.178q-.344-.227.1.085a1.644,1.644,0,0,1,.425,1.154q-.486,1.426-.047.506a10.909,10.909,0,0,0,.715-1.636,13.6,13.6,0,0,0,.694-2.616,18.514,18.514,0,0,0-.08-6.309c-.778-4.376-3.071-8.37-5.247-12.18-1.532-2.682-5.681-.267-4.145,2.423Z"/><path class="c" d="M170.3,89.7a80.466,80.466,0,0,0,18.658,11.562c5.816,2.523,12.068,5.388,18.452,5.957a2.417,2.417,0,0,0,2.4-2.4,2.45,2.45,0,0,0-2.4-2.4,26.179,26.179,0,0,1-3.773-.789c-1.509-.417-3-.908-4.473-1.431-2.748-.975-5.506-2.09-7.989-3.171a75.849,75.849,0,0,1-17.481-10.722,2.47,2.47,0,0,0-3.394,0,2.418,2.418,0,0,0,0,3.394Z"/><path class="a" d="M277.692,211.581c-3.507,30.809-8.9,71.732-11.761,102.222-1.186,11.851-2.209,23.764-4.3,35.3,0,0-86.638,0-109.586.008.009-5.055.032-14,.06-24.459,27.44-.33,75.424-1.26,91.5-1.653,5.542-44.469,17.611-129.982,19.009-150.747.465-6.364,10.233-7.162,16.518-8.216,10.169-1.7,2.34,9.965.725,27.111C279.29,197.155,278.547,204.067,277.692,211.581Z"/><path class="a" d="M133.388,326.624H81.857a197.981,197.981,0,0,1,8.888-29.259c1.957-4.893,6.741-12.148,14.075-13.7,28.351-6.014,59.925-12.222,82.74-19.333l9.266-4.5c12.023,6.77,32.689,15.362,47.919,18.131l2.044,5.75c.447,7.5,1.161,13.715-1.3,20.769a23.765,23.765,0,0,1-15.937,15.091c-7.76,2.56-16.336,1.958-24.581,2.02-24.184.18-43.824.214-65.055.473,0,1.677-.007,3.207-.01,4.564Z"/><path class="d" d="M210.683,154.915c-.348.125-.558.2-.6.227a11.081,11.081,0,0,0-2.732,2.268c-.363.471-1,1.413-1.364,1.885L196.1,176.769c-2.079,3.678-4.2,7.476-4.7,11.657-.751,6.317,2.288,12.418,5.242,18.089l-.127,33.183c-.37,2.407-.427,6.712-1.259,8.481-.692,1.473-2.963,3.408-3.185,4.63-.577,3.172.778,4.222,2.353,5.623,12.023,7.249,36.093,17.446,52.5,19.888.3-17.934,3.793-34.16,5.367-52.066,1.157-13.157.889-26.223-1.394-44.231-1.761-13.884-4.708-20.824-12.273-31.992a6.465,6.465,0,0,0-6.11-2.179C226.751,149.406,213.667,153.845,210.683,154.915Z"/><path class="c" d="M137.233,327.165c12.922,0,25.847-.255,38.768-.465q24.4-.4,48.8-.9,9.4-.19,18.8-.41c3.083-.075,3.095-4.875,0-4.8-13.1.32-26.2.565-39.308.81q-24.323.454-48.647.8c-6.139.08-12.278.162-18.417.163-3.089,0-3.094,4.8,0,4.8Z"/><path class="e" d="M102.468,0A35.487,35.487,0,0,0,81.24,6.847,34.694,34.694,0,0,0,69,24.246c-4.223,13.57-.141,29.9,11.236,38.766s28.612,9.79,41.04,2.538C133.8,58.241,139.139,43.2,137.083,29.257A34.415,34.415,0,0,0,108.455.482,41.262,41.262,0,0,0,102.468,0c-3.089-.015-3.093,4.785,0,4.8a31.01,31.01,0,0,1,18.521,5.966A29.391,29.391,0,0,1,131.3,25.477c3.659,11.741.45,25.833-9.171,33.691C112.747,66.834,97.65,67.6,87.068,61.8c-11.085-6.075-16.443-19.22-14.537-31.566a30.272,30.272,0,0,1,8.063-16.475,29.918,29.918,0,0,1,16.8-8.6,32.744,32.744,0,0,1,5.073-.367C105.556,4.785,105.562-.015,102.468,0Z"/><path class="e" d="M328.762,360.8q0-18.978-.066-37.954-.065-21.526-.159-43.054-.094-22.41-.193-44.821-.091-21.624-.167-43.25-.062-19.172-.082-38.344,0-2.141,0-4.282l-2.4,2.4c17.655.024,35.311-.193,52.966-.289q6.165-.033,12.33-.044c3.088,0,3.093-4.8,0-4.8-17.727,0-35.454.212-53.18.3-4.039.02-8.077.038-12.116.033a2.435,2.435,0,0,0-2.4,2.4q0,18.748.067,37.5.065,21.409.16,42.819.093,22.4.192,44.806.093,21.729.167,43.458.062,19.386.081,38.773,0,2.177,0,4.352c0,3.088,4.8,3.093,4.8,0Z"/><path class="e" d="M339.725,360.8q0-38.77-.226-77.539-.183-41.011-.358-82.024-.071-20.526-.084-41.053l-2.4,2.4c14.988-.079,29.976-.21,44.965-.282q4.683-.022,9.366-.028c3.089,0,3.094-4.8,0-4.8-14.028,0-28.056.144-42.083.236q-6.124.04-12.248.074a2.436,2.436,0,0,0-2.4,2.4q0,38.45.229,76.9.186,41.1.358,82.205.069,20.757.081,41.514c0,3.088,4.8,3.093,4.8,0Z"/><path class="e" d="M337.308,344.643c13.983-.107,27.966-.279,41.949-.372q4.515-.03,9.031-.038c3.089,0,3.094-4.8,0-4.8-13.192,0-26.384.187-39.575.311q-5.7.054-11.405.1c-3.087.024-3.095,4.824,0,4.8Z"/><path class="e" d="M336.938,246.573c14.891-.07,29.783-.2,44.674-.271q4.688-.022,9.376-.029c3.089,0,3.094-4.8,0-4.8-13.914,0-27.829.143-41.743.231q-6.153.039-12.307.069c-3.088.015-3.094,4.815,0,4.8Z"/><path class="e" d="M350.615,233.947c-.01-13.334.127-26.667.117-40l-2.4,2.4c7.294,0,14.588-.055,21.882-.056,3.088,0,3.094-4.8,0-4.8-7.294,0-14.588.054-21.882.056a2.435,2.435,0,0,0-2.4,2.4c.01,13.333-.127,26.666-.117,40,0,3.088,4.8,3.093,4.8,0Z"/><path class="e" d="M355.929,333.652c3.79-11.734,7.7-23.428,11.494-35.163.952-2.946-3.681-4.208-4.628-1.276-3.79,11.735-7.7,23.429-11.494,35.163-.952,2.947,3.681,4.209,4.628,1.276Z"/><path class="e" d="M358.122,200.65c0,11.408-.155,22.815-.157,34.223,0,3.088,4.8,3.093,4.8,0,0-11.408.155-22.815.157-34.223,0-3.088-4.8-3.093-4.8,0Z"/><path class="e" d="M378.059,333.169c-.009-13.334.127-26.667.118-40,0-3.089-4.8-3.094-4.8,0,.009,13.333-.127,26.666-.118,40,0,3.088,4.8,3.094,4.8,0Z"/><path class="e" d="M374.984,234.132c0-15.334-.22-30.667-.222-46l-2.4,2.4h18.593c3.088,0,3.093-4.8,0-4.8H372.362a2.435,2.435,0,0,0-2.4,2.4c0,15.333.22,30.666.222,46,0,3.088,4.8,3.094,4.8,0Z"/><path class="c" d="M246.005,322.994q1.983-15.914,4.109-31.81,2.421-18.36,4.869-36.716,2.391-18.025,4.726-36.058c1.282-9.978,2.546-19.96,3.691-29.955.413-3.6.811-7.208,1.158-10.818.13-1.349.253-2.7.358-4.051a10.888,10.888,0,0,1,.181-1.739,3.474,3.474,0,0,1,1.353-1.94c1.756-1.369,4.4-1.982,6.759-2.463,1.372-.28,2.756-.5,4.14-.716.625-.1,1.25-.192,1.874-.293.266-.043.531-.094.8-.129-.372.049.371-.025.5-.031.2-.009.4,0,.6,0,.122,0,.246.015.367.024-.006,0-.474-.092-.217-.026.147.038.305.086.453.113.265.049-.257-.116-.236-.112.1.016.2.149.3.162s-.376-.347-.081-.052c.359.357-.223-.354-.021-.03.187.3.065.2-.012-.087.043.159.085.332.139.487.182.53,0-.351.016.069.008.174.021.347.023.522a13.013,13.013,0,0,1-.073,1.367c0,.032-.042.385-.009.112.037-.3-.025.17-.035.238-.038.234-.076.469-.118.7-.107.595-.23,1.187-.359,1.778-1.4,6.387-3.1,12.647-3.764,19.177-.566,5.6-1.123,11.2-1.747,16.79-1.5,13.487-3.155,26.957-4.787,40.429-1.74,14.359-3.479,28.718-5.075,43.093-1.67,15.035-2.837,30.133-4.714,45.142-.514,4.113-1.123,8.212-1.857,12.291a2.469,2.469,0,0,0,1.676,2.953,2.422,2.422,0,0,0,2.953-1.677c2.9-16.111,3.956-32.5,5.665-48.765,1.534-14.588,3.268-29.155,5.024-43.717,1.712-14.2,3.465-28.389,5.1-42.594,1.429-12.392,2.089-24.961,5.028-37.108.605-2.5,1.285-5.006,1.65-7.558.284-1.983.5-4.194-.55-6.011a5.535,5.535,0,0,0-5.034-2.516,46.281,46.281,0,0,0-7.971,1.168c-5.324.99-11.955,3.043-12.623,9.343-.307,2.905-.487,5.827-.789,8.734-.939,9.057-2.062,18.1-3.2,27.13q-2.232,17.769-4.6,35.521-2.5,18.978-5.034,37.952-2.28,17.207-4.5,34.421-.462,3.628-.915,7.258a2.412,2.412,0,0,0,2.4,2.4,2.461,2.461,0,0,0,2.4-2.4Z"/><path class="c" d="M186.922,262.013c-17.768,5.524-36.024,9.449-54.207,13.324q-7.4,1.578-14.816,3.124c-4.738.993-9.552,1.821-14.245,3.01-7.5,1.9-12.635,8.755-15.364,15.611a207.977,207.977,0,0,0-8.748,28.9c-.715,3,3.913,4.285,4.629,1.276a218.432,218.432,0,0,1,7.387-25.36c2.2-5.936,5.455-13.092,12.175-15.443a52.51,52.51,0,0,1,6.551-1.5q3.552-.749,7.1-1.492,7.18-1.5,14.357-3.021c9.42-2,18.831-4.041,28.2-6.258,9.485-2.243,18.942-4.649,28.251-7.543,2.941-.914,1.686-5.549-1.276-4.629Z"/><path class="c" d="M124.85,324.68c19.9-.34,39.794-.448,59.692-.562q7.992-.045,15.985-.1c5.327-.037,10.667.1,15.991-.071,9.374-.305,19.176-2.269,25.735-9.507A28.054,28.054,0,0,0,249,300.583c1.023-5.6.534-11.236.193-16.876-.185-3.069-4.986-3.09-4.8,0,.544,9,1.369,18.52-4.49,26.114-5.433,7.042-14.223,8.962-22.689,9.3-5.146.207-10.31.051-15.459.087q-7.692.054-15.384.1-14.5.084-29,.181-16.258.126-32.515.391c-3.086.053-3.095,4.853,0,4.8Z"/><path class="c" d="M194.209,239.06c-.349,2.4-.321,4.9-.87,7.266a4.083,4.083,0,0,1-1.083,2.015,12.166,12.166,0,0,0-2.347,3.4,7.162,7.162,0,0,0,1.533,7.176,19.736,19.736,0,0,0,5.349,3.636A190.518,190.518,0,0,0,226.565,275.5a123.319,123.319,0,0,0,17.542,4.774,2.468,2.468,0,0,0,2.953-1.677,2.422,2.422,0,0,0-1.677-2.952c-10.218-1.881-20.152-5.419-29.721-9.4-4.607-1.918-9.147-4.018-13.581-6.309-1.848-.955-3.679-1.947-5.475-3-1.478-.865-2.387-1.631-2.238-3.309.037-.418.05-.338.383-.8.38-.523.832-1,1.236-1.5a9.21,9.21,0,0,0,1.914-3.445c.634-2.408.617-5.337.937-7.542a2.48,2.48,0,0,0-1.677-2.952,2.417,2.417,0,0,0-2.952,1.676Z"/><path class="a" d="M100.144,222.57c.1-.161.2-.312.3-.451,2.4-3.268,3.923-5.943,6.9-8.7a15.006,15.006,0,0,1,10.489-4.132,22.173,22.173,0,0,1,9.222,2.733c4.053,2.285,9.689,5.566,15.892,8.77l4.043.957c-.231,4.677-.427,10.129-.409,15.042-4.421.842-9.524,1.822-9.524,1.822-5,.909-7.936.416-12.494-2.369-2.4-1.466-4.7-2.91-7.305-1.1-1.621,1.122-1.991,2.017-3.554,3.676-.917.974-1.828,1.241-3.551.576-.782-.3-1.084-1.764-.878-2.968a31.072,31.072,0,0,1,.8-3.5l-2,.866a4.28,4.28,0,0,1-4.72.212c-1.384-1.167-.966-3.877.656-6l-1.583.145a3.091,3.091,0,0,1-3.071-1.97A5.073,5.073,0,0,1,100.144,222.57Z"/><path class="c" d="M108.357,230.354c-1,3.049-3.168,8.763.362,10.988a5.5,5.5,0,0,0,5.5.143c1.55-.924,2.428-2.627,3.722-3.831,1.276-1.187,2.334-1.081,3.8-.285,1.729.936,3.332,2.012,5.152,2.778,3.533,1.486,7.08,1.435,10.8.781a2.42,2.42,0,0,0,1.676-2.952,2.454,2.454,0,0,0-2.952-1.676,13.407,13.407,0,0,1-7.729-.566c-3.067-1.293-5.788-4.085-9.342-3.808a8,8,0,0,0-4.8,2.334,15.3,15.3,0,0,0-1.32,1.467,7.241,7.241,0,0,1-1.438,1.618c.025-.013.39-.024,0,.012a.246.246,0,0,1-.2-.022q-.675-.285-.159.1c.541-.218.009.579.19-.076.076-.275.04-.652.09-.95a32.874,32.874,0,0,1,1.279-4.775c.968-2.941-3.666-4.2-4.629-1.276Z"/><path class="c" d="M144.156,218.721c-4.157-2.154-8.247-4.432-12.319-6.744-3.743-2.125-7.4-4.189-11.729-4.836a16.8,16.8,0,0,0-12.449,2.964c-3.646,2.618-6.074,6.312-8.644,9.911-1.389,1.944-2.676,4.329-1.975,6.806a5.459,5.459,0,0,0,5.386,3.732,2.456,2.456,0,0,0,2.4-2.4,2.421,2.421,0,0,0-2.4-2.4c-.191.012-.572.067-.743-.244-.108-.2.106-.866.228-1.158a24.037,24.037,0,0,1,2.8-4.117c1.932-2.743,4.085-5.42,7.074-7.057a12.308,12.308,0,0,1,9.34-.944c3.271.844,6.064,2.626,8.973,4.275,3.846,2.18,7.712,4.323,11.638,6.357,2.739,1.418,5.169-2.722,2.422-4.145Z"/><path class="c" d="M109.305,217.721A64.633,64.633,0,0,0,104,223.9c-1.432,1.89-3.138,3.917-3.671,6.284-.593,2.635.212,5.411,2.9,6.443a6.533,6.533,0,0,0,6.536-1.141,2.4,2.4,0,1,0-3.394-3.394c-.328.321.427-.275.038-.033-.406.253.481-.111-.02.012-.171.042-.34.089-.512.129-.551.13.485.009-.092,0-.185,0-.374,0-.558,0-.487.014.411.138-.08,0a3.11,3.11,0,0,0-.412-.112c-.213-.03.452.239,0-.028q-.22-.146.186.134-.213-.236-.022-.008c.119.158.121.148.008-.031q.166.446.078.188c-.017-.137-.076-.284-.107-.421.135.595.029.073.033-.1.005-.234.1-.549,0-.156.052-.207.091-.413.152-.618.01-.034.254-.688.071-.264a6.875,6.875,0,0,1,.315-.624,25.709,25.709,0,0,1,1.594-2.344q.4-.552.8-1.1.222-.3.447-.591c-.223.291.19-.243.232-.3a59.8,59.8,0,0,1,4.168-4.718,2.4,2.4,0,1,0-3.394-3.394Z"/><path class="c" d="M109.855,235.251c.535-.876,1.1-1.732,1.712-2.558.06-.082.12-.163.181-.244.026-.034.334-.436.088-.118s.039-.048.092-.114c.078-.1.157-.2.236-.294q.475-.585.976-1.146a37.1,37.1,0,0,1,4.373-4.137,2.4,2.4,0,0,0,.7-1.7,2.439,2.439,0,0,0-.7-1.7,2.412,2.412,0,0,0-1.7-.7,2.754,2.754,0,0,0-1.7.7,37.336,37.336,0,0,0-8.408,9.583,2.4,2.4,0,1,0,4.144,2.422Z"/><path class="c" d="M249.338,283.707c-.339-17.978,3.128-35.622,4.977-53.433a208.152,208.152,0,0,0-.885-47.265c-.9-7.3-2.26-14.426-5.233-21.194a69.613,69.613,0,0,0-4.838-8.943,27.951,27.951,0,0,0-3.3-4.828,9.193,9.193,0,0,0-4.875-2.577c-2.72-.475-5.415.655-7.98,1.448-2.844.88-5.675,1.8-8.5,2.739q-3.5,1.161-6.992,2.364a13.982,13.982,0,0,0-5.026,2.657,15.4,15.4,0,0,0-3.134,4.048l-3.494,6.18c-2.3,4.06-4.624,8.1-6.882,12.184-2.108,3.812-3.96,7.811-4.246,12.219-.282,4.36,1.075,8.6,2.783,12.545.865,2,1.862,3.942,2.868,5.876,1.426,2.741,5.57.317,4.144-2.423a46.453,46.453,0,0,1-4.614-11.207,17.07,17.07,0,0,1,1.4-11.074c1.789-3.864,4.072-7.52,6.165-11.222l3.373-5.967c1.042-1.843,1.99-3.81,3.183-5.556.234-.342.482-.675.723-1.013.1-.138.193-.284.3-.416-.038.046-.172.207.015,0,.3-.332,1.55-1.714,2.026-1.636-.184-.03-.822.314-.222.106.247-.086.493-.177.74-.264,1.921-.678,3.852-1.33,5.783-1.979,5.021-1.686,10.056-3.413,15.17-4.8a3.563,3.563,0,0,1,2.9.4c1.412.8,2.184,2.475,3.033,3.8a75.251,75.251,0,0,1,4.806,8.55,62.757,62.757,0,0,1,4.949,18.56,204.936,204.936,0,0,1,1.45,44.667c-1.493,17.021-4.933,33.848-5.349,50.964q-.078,3.244-.014,6.489c.058,3.085,4.858,3.1,4.8,0Z"/><path class="d" d="M195.636,201.386a94.06,94.06,0,0,1-4.774,12.062c-15.29,1.343-29.731,2.53-44.178,3.7a1.3,1.3,0,0,0-1.2,1.3c.182,6.179.134,15.864,1.041,23.143a1.26,1.26,0,0,0,1.25,1.093c19.2.133,34.048-.535,52.156-3.432a27.511,27.511,0,0,0,14.475-6.514,24.588,24.588,0,0,0,4.766-7.465c6.307-13.408,8.238-18.68,11.387-33.013.9-5.562,1.689-11.149.181-16.551a14.937,14.937,0,0,0-11.07-8.829c-6.35-1.039-11.358,2.021-14.7,6.866a32.617,32.617,0,0,0-4.665,10.92C198.565,190.992,197.3,196.2,195.636,201.386Z"/><path class="c" d="M193.322,200.748a94.812,94.812,0,0,1-4.532,11.489l2.072-1.189q-15.432,1.354-30.873,2.617-3.855.318-7.711.633l-3.5.285c-1.282.1-2.788.021-3.925.71-2.128,1.289-1.754,3.741-1.711,5.856.042,2.064.074,4.128.124,6.191.1,4.444.252,8.9.743,13.322a5.2,5.2,0,0,0,1.031,3.2,4.339,4.339,0,0,0,3.465,1.24q3.805.022,7.611,0c9.425-.072,18.848-.451,28.229-1.394,4.883-.49,9.752-1.123,14.6-1.871a40.916,40.916,0,0,0,5.862-1.135,33.859,33.859,0,0,0,5.925-2.469,21.564,21.564,0,0,0,9.182-9.061c2.068-3.857,3.82-7.939,5.531-11.966a127.622,127.622,0,0,0,6.879-21.865,51.162,51.162,0,0,0,1.553-15.415,16.5,16.5,0,0,0-1.89-7.051,17.03,17.03,0,0,0-3.974-4.65,16.67,16.67,0,0,0-22.57,1.193c-6.519,6.612-7.9,16.456-10.264,25.033-.583,2.113-1.2,4.217-1.862,6.3-.941,2.95,3.691,4.212,4.628,1.276,1.328-4.16,2.429-8.386,3.555-12.6,1.153-4.317,2.127-8.686,4.368-12.6,1.7-2.968,4.1-5.77,7.38-7.009a11.772,11.772,0,0,1,10.19,1.01,12.583,12.583,0,0,1,3.814,3.537,11.076,11.076,0,0,1,1.843,5.795,48.244,48.244,0,0,1-1.5,14.325,120.649,120.649,0,0,1-6.439,20.626c-1.671,3.916-3.38,7.882-5.391,11.637a17.617,17.617,0,0,1-8.325,7.781c-3.63,1.784-7.421,2.332-11.375,2.92q-6.7,1-13.45,1.625c-9.043.846-18.122,1.175-27.2,1.231q-1.767.012-3.533.01-.962,0-1.922,0a8.058,8.058,0,0,0-1.95-.01c-.8.221.758,1.442.836.745a3.725,3.725,0,0,0-.084-.76q-.072-.681-.133-1.362c-.1-1.079-.175-2.159-.241-3.239-.26-4.225-.337-8.459-.416-12.69-.018-.963-.035-1.926-.057-2.889a7.641,7.641,0,0,0-.029-1.164c-.087-.465.244-.852-.379.05-.566.821-.129.51.567.454l7.23-.59q7.282-.6,14.565-1.2,7.432-.623,14.864-1.263l3.662-.318c1.288-.113,3.177.06,4.157-.919a11.117,11.117,0,0,0,1.675-3.326q.763-1.746,1.471-3.517c.821-2.066,1.561-4.162,2.244-6.278C198.9,199.078,194.269,197.816,193.322,200.748Z"/><path class="c" d="M176.577,134.4a13.507,13.507,0,0,0,5.214-1.385,9.23,9.23,0,0,0,1.614-1.106,6.193,6.193,0,0,0,1-1.118,2.4,2.4,0,0,0,.242-1.849,2.45,2.45,0,0,0-1.1-1.435,2.422,2.422,0,0,0-1.849-.242l-.573.242a2.416,2.416,0,0,0-.861.861l-.018.023.375-.485a4.079,4.079,0,0,1-.724.7l.486-.375a7.277,7.277,0,0,1-1.6.912l.573-.242a11.167,11.167,0,0,1-2.762.716l.638-.086c-.216.027-.432.05-.649.067a2.555,2.555,0,0,0-1.7.7,2.4,2.4,0,0,0,0,3.394,2.369,2.369,0,0,0,1.7.7Z"/><path class="c" d="M178.789,110.705c-.213,1.544.571,4.9,3.272,4.792,3.51-.553,3.089-4.694,1.621-6.45C182.48,107.61,179.535,107.382,178.789,110.705Z"/><path class="e" d="M82.881,248.689c6.032,0,52.149.065,55.24.065,0-1.642-.04-2.931-.04-4.5a1.959,1.959,0,0,0-.432-1.262,2.17,2.17,0,0,0-1.285-.636c-13.056-1.988-41.612-4.433-53.612-5.062C82.752,238.043,82.872,248.025,82.881,248.689Z"/><path class="c" d="M82.881,251.089q10.2,0,20.41.023l27.416.034q3.707,0,7.414.008a2.435,2.435,0,0,0,2.4-2.4c-.006-2.651.655-6.407-1.936-8.084-1.569-1.014-4.028-.989-5.835-1.228-3.913-.518-7.837-.959-11.762-1.372q-13.3-1.4-26.632-2.4c-3.865-.3-7.733-.573-11.6-.777a2.427,2.427,0,0,0-2.4,2.4c.009,3.8.078,7.6.129,11.4.042,3.086,4.842,3.095,4.8,0-.051-3.8-.12-7.6-.129-11.4l-2.4,2.4c15.353.812,30.728,2.214,45.991,4.047,1.852.222,3.6.443,5.189.667q.607.085,1.214.176a4.346,4.346,0,0,0,.465.069,3.427,3.427,0,0,1,.459.094.571.571,0,0,1-.348-.385c-.167-.039-.04.3-.039.581,0,.44.009.88.015,1.319.011.832.021,1.663.023,2.5l2.4-2.4q-9.156,0-18.311-.021l-28-.035-8.929-.009C79.792,246.288,79.787,251.088,82.881,251.089Z"/><path class="e" d="M59.078,217.692c-2.98-37.2-8.386-85.488-12.013-121.364-3.119.223-7.549,1.032-11.052,1.412,3.659,36.059,9.4,84.322,12.33,121.352C51.448,218.835,58.923,217.708,59.078,217.692Z"/><path class="c" d="M61.478,217.692c-1.265-15.763-2.774-31.507-4.349-47.242-1.636-16.336-3.359-32.663-5.067-48.991q-1.314-12.564-2.6-25.131a2.435,2.435,0,0,0-2.4-2.4c-3.7.285-7.361,1-11.052,1.412-1.185.133-2.543,1-2.4,2.4,1.572,15.481,3.276,30.949,4.947,46.419,1.772,16.4,3.526,32.8,5.1,49.213.824,8.567,1.6,17.14,2.279,25.72a2.43,2.43,0,0,0,2.4,2.4c2.279-.2,4.548-.522,6.813-.835q1.47-.2,2.939-.416c.361-.052.722-.1,1.083-.157.279-.042,1.075-.141-.1.008a2.477,2.477,0,0,0,2.4-2.4,2.414,2.414,0,0,0-2.4-2.4c-3.62.459-7.109,1.088-10.735,1.4l2.4,2.4c-1.245-15.724-2.8-31.424-4.424-47.112-1.7-16.345-3.492-32.68-5.251-49.018Q39.71,110.355,38.413,97.74l-2.4,2.4c3.69-.412,7.348-1.127,11.052-1.412l-2.4-2.4c1.562,15.436,3.2,30.864,4.811,46.3,1.71,16.412,3.4,32.828,4.937,49.257q1.211,12.9,2.265,25.811a2.461,2.461,0,0,0,2.4,2.4A2.418,2.418,0,0,0,61.478,217.692Z"/><path class="c" d="M38.084,180.619c-2.287,14.008-4.911,27.964-7.446,41.929q-1.016,5.589-2.027,11.179-.463,2.56-.924,5.122a26.12,26.12,0,0,0-.772,5.04,7.451,7.451,0,0,0,2.541,5.436,8.53,8.53,0,0,0,5.962,1.828q6.377,0,12.752-.007,11.175-.007,22.348-.017c3.089,0,3.094-4.8,0-4.8q-9.1,0-18.209.014-6.148.006-12.3.009c-1.931,0-3.944.165-5.867,0a2.621,2.621,0,0,1-2.394-2.129c-.217-1.257.34-2.834.567-4.094q.43-2.4.865-4.8.975-5.394,1.955-10.786Q37.182,213.273,39.211,202c1.2-6.7,2.406-13.392,3.5-20.107a2.473,2.473,0,0,0-1.676-2.952,2.421,2.421,0,0,0-2.953,1.676Z"/><path class="a" d="M140.346,352.325c0-8.57.14-57.566.21-86.436,4.514-.022,8.337-.044,11.262-.065-.079,29.169-.212,78.127-.212,86.5Z"/><path class="c" d="M154.005,352.328c0-8.518.035-17.035.058-25.553q.055-20.1.115-40.2.029-9.864.055-19.729c.008-3.089-4.792-3.093-4.8,0q-.051,18.775-.107,37.551-.052,18.418-.1,36.836-.013,5.547-.02,11.095c0,3.088,4.8,3.093,4.8,0Z"/><path class="c" d="M142.745,352.328c0-8.518.035-17.035.059-25.553q.054-20.1.114-40.2.029-9.864.056-19.729c.008-3.089-4.792-3.093-4.8,0q-.051,18.775-.107,37.551-.053,18.418-.1,36.836-.014,5.547-.021,11.095c0,3.088,4.8,3.093,4.8,0Z"/><path class="a" d="M6.579,266.289c24.975-.053,133.806-.313,149.729-.5,0-5.16-.087-9.012-.087-13.41h-.866c-11.764.007-134.628.1-152.927.1,0,3.04-.011,7.893-.028,13.828l4.179-.009"/><path class="a" d="M6.933,352.325c0-8.53.14-57.117.21-86.037l11.26-.026c-.07,28.919-.21,77.532-.21,86.063Z"/><path class="c" d="M6.579,268.689q11.453-.024,22.9-.052,17.1-.042,34.191-.088,18.79-.051,37.583-.111,16.539-.052,33.08-.121c6.878-.03,13.757-.053,20.636-.118l1.335-.015a2.436,2.436,0,0,0,2.4-2.4c0-4.47-.085-8.94-.087-13.41a2.434,2.434,0,0,0-2.4-2.4q-9.229,0-18.459.012l-33.721.023-40.017.027-36.6.022q-11.736.007-23.472.011H2.428a2.434,2.434,0,0,0-2.4,2.4q0,6.914-.028,13.828a2.434,2.434,0,0,0,2.4,2.4l4.179-.009c3.088-.006,3.094-4.806,0-4.8L2.4,263.9l2.4,2.4q.019-6.915.028-13.828l-2.4,2.4q10.629,0,21.26-.009l35.528-.022,40.121-.027,35-.024,20.165-.014h1.719l-2.4-2.4c0,4.47.084,8.94.087,13.41l2.4-2.4c-6.212.074-12.425.09-18.637.118q-16,.073-31.995.122-18.728.062-37.457.112-17.512.05-35.024.092-12.316.03-24.632.057l-1.984,0c-3.088.007-3.094,4.807,0,4.8Z"/><path class="c" d="M9.339,352.329c0-8.391.033-16.781.055-25.172q.053-20.119.11-40.239.028-10.314.055-20.629c.008-3.089-4.792-3.093-4.8,0q-.05,19.326-.105,38.652-.049,18.228-.1,36.456-.012,5.466-.019,10.932c0,3.089,4.8,3.094,4.8,0Z"/><path class="c" d="M20.6,352.328c0-8.518.035-17.035.059-25.553q.054-20.1.114-40.2.029-9.864.056-19.729c.008-3.089-4.792-3.093-4.8,0q-.051,18.775-.107,37.551-.054,18.418-.1,36.836-.014,5.547-.021,11.095c0,3.088,4.8,3.093,4.8,0Z"/><path class="e" d="M102.22,37.824c4.973.077,9.948.137,14.923.144a2.4,2.4,0,1,0,0-4.8c-4.975-.007-9.95-.067-14.923-.144a2.4,2.4,0,0,0,0,4.8Z"/><path class="e" d="M99.762,13.47c0,7.318.056,14.636.058,21.954,0,3.089,4.8,3.094,4.8,0,0-7.318-.057-14.636-.058-21.954,0-3.088-4.8-3.093-4.8,0Z"/></svg>